<svg width="259" height="264" viewBox="0 0 259 264" fill="none" xmlns="http://www.w3.org/2000/svg">
<g filter="url(#filter0_d)">
<path d="M166.793 43L61.0602 80.787C47.238 98.5598 39 120.916 39 145.203C39 185.115 61.2402 219.814 93.9661 237.519L113.181 245.536C122.219 248.281 131.773 249.829 141.663 250L190.969 238.609C224.821 221.264 248 185.949 248 145.203C248 95.3437 213.294 53.6185 166.793 43V43Z" fill="url(#paint0_linear)"/>
</g>
<path d="M197.502 101.126L188.128 115.797C186.925 114.858 185.69 113.952 184.418 113.088C178.256 108.907 171.533 105.829 164.478 103.898L174.153 88.7552C182.492 91.6177 190.38 95.7769 197.502 101.126V101.126Z" fill="#FFB332"/>
<path d="M76.1508 121.844L92.578 128.649C87.324 135.717 83.4716 143.806 81.3055 152.486L65.1388 145.788C67.5715 137.162 71.3122 129.105 76.1508 121.844Z" fill="#FF9100"/>
<path d="M104.63 192.707C104.457 183.78 111.578 176.377 120.505 176.203C129.431 176.03 136.835 183.151 137.008 192.077L137.03 193.226C137.115 197.576 136.76 201.934 135.994 206.221C134.756 204.77 128.672 198.191 120.252 198.354C110.768 198.539 105.203 207.109 105.203 207.109L104.903 206.756L104.63 192.707Z" fill="#FFB332"/>
<path d="M137.031 193.226L137.008 192.077C136.835 183.151 129.431 176.03 120.505 176.203C117.316 176.265 114.359 177.254 111.881 178.902C117.872 181.184 122.193 186.928 122.325 193.722L122.347 194.871C122.371 196.065 122.358 197.259 122.315 198.452C129.655 199.26 134.86 204.892 135.994 206.221C136.76 201.934 137.115 197.576 137.031 193.226Z" fill="#FFA219"/>
<path d="M0.64345 214.773C14.2832 192.806 18.9469 156.234 18.253 120.535C17.4793 80.74 39.1801 51.7988 43.4067 46.5479C43.8303 46.0213 44.5201 45.7917 45.1764 45.9528L52.9527 47.8656C54.4424 48.2321 55.6438 46.6328 54.8773 45.3043L50.7768 38.1961C50.4232 37.5835 50.4695 36.813 50.906 36.256C68.6402 13.6297 99.9971 4.73335 109.632 2.45559C111.336 2.05254 113.099 2.819 113.971 4.33802L119.482 13.9406C120.673 16.0156 123.792 15.5492 124.324 13.2169L126.635 3.08306C127.045 1.28659 128.643 0.012076 130.486 0.0028105C213.663 -0.420827 247.978 47.163 257.804 64.7257C259.501 67.7565 257.687 71.5255 254.27 72.1494C228.06 76.9345 215.343 89.1835 213.833 90.7205C213.588 90.1867 213.229 89.7085 212.762 89.3199C193.692 73.4461 169.498 64.9702 144.637 65.4536C121.025 65.9127 98.0822 74.5353 80.0357 89.7311C62.1574 104.785 49.7983 125.634 45.2345 148.436C44.9988 149.615 45.3087 150.825 46.0849 151.753C46.873 152.696 48.0281 153.223 49.2547 153.199L49.7612 153.189C49.4426 153.761 49.2717 154.077 49.2717 154.077C49.9908 191.047 24.0568 211.162 6.12295 220.627C2.38948 222.597 -1.58284 218.358 0.64345 214.773V214.773Z" fill="#FF4155"/>
<path d="M80.0351 89.7317C89.6455 81.6393 100.645 75.4119 112.393 71.2877C112.732 70.407 112.631 69.4115 112.104 68.6146C87.2251 30.9505 119.479 13.9422 119.482 13.9406L113.971 4.33801C113.099 2.81847 111.336 2.05253 109.632 2.45558C99.9971 4.73334 68.6407 13.6297 50.906 36.256C50.4695 36.813 50.4237 37.5835 50.7768 38.1961L54.8773 45.3042C55.6443 46.6328 54.4424 48.2321 52.9527 47.8656L45.1764 45.9528C44.5201 45.7912 43.8308 46.0213 43.4067 46.5479C39.1801 51.7988 17.4793 80.74 18.253 120.535C18.9474 156.235 14.2832 192.806 0.643446 214.773C-1.58284 218.358 2.38947 222.598 6.12243 220.628C24.0563 211.163 49.9898 191.049 49.2712 154.078C49.2712 154.078 49.4416 153.762 49.7607 153.19L49.2542 153.2C48.0276 153.224 46.8725 152.697 46.0844 151.754C45.3076 150.826 44.9978 149.616 45.2335 148.437C49.7978 125.634 62.1564 104.786 80.0351 89.7317V89.7317Z" fill="#E80054"/>
<path d="M144.62 64.5764C170.208 64.0787 194.381 72.8783 213.324 88.6455C215.475 90.4363 215.674 93.6715 213.772 95.7244L206.482 103.59C204.72 105.491 201.789 105.677 199.785 104.032C184.905 91.8251 165.769 84.6526 145.018 85.0562C105.745 85.8201 73.3079 113.475 64.9293 150.111C64.4326 152.282 62.4966 153.82 60.2703 153.863L49.2717 154.077C46.1626 154.137 43.7634 151.313 44.3734 148.264C53.8308 101.008 95.09 65.5395 144.62 64.5764V64.5764Z" fill="#FFDD40"/>
<path d="M117.43 90.2763C117.179 89.6972 116.744 89.1963 116.164 88.8674C107.344 83.8682 110.562 75.016 112.288 71.5405C112.49 71.1343 112.585 70.6958 112.587 70.2572C78.0714 82.1741 51.6941 111.685 44.3734 148.264C43.7629 151.313 46.1626 154.137 49.2717 154.077L60.2703 153.863C62.4966 153.82 64.4326 152.282 64.9293 150.111C71.2386 122.524 91.1902 100.031 117.43 90.2763V90.2763Z" fill="#FFB332"/>
<path d="M137.137 124.091C135.366 127.12 132.621 129.407 129.407 130.531C119.629 133.953 97.8526 142.774 79.1528 158.795C83.9431 126.428 111.52 101.3 145.321 100.642C152.351 100.505 159.148 101.447 165.566 103.297C156.739 105.352 144.997 110.645 137.137 124.091V124.091Z" fill="#FFB332"/>
<path d="M128.355 130.905C128.372 129.935 127.896 128.994 127.065 128.408C117.277 121.516 119.653 111.619 121.354 107.271C121.591 106.666 121.606 106.027 121.434 105.44C99.174 114.294 82.7468 134.506 79.1523 158.795C97.2102 143.325 118.133 134.569 128.355 130.905V130.905Z" fill="#FFA219"/>
<path d="M79.5142 181.117C78.8702 177.565 78.4965 173.918 78.424 170.192C78.3395 165.855 78.6669 161.606 79.3603 157.478C98.0832 141.711 119.615 133.028 129.117 129.703C132.188 128.628 134.737 126.456 136.379 123.647C143.967 110.667 155.014 105.132 163.784 102.8C184.946 108.277 202.191 123.677 210.14 143.826L157.97 144.841C140.804 145.174 123.78 149.726 108.739 158.003L88.915 168.911C84.1371 171.54 80.7897 175.986 79.5142 181.117V181.117Z" fill="#FFC839"/>
<path d="M134.887 146.936C125.262 143.627 126.791 135.657 128.185 131.827C128.404 131.227 128.403 130.597 128.228 130.018C118.324 133.557 97.5216 142.185 79.3603 157.479C78.6664 161.606 78.3395 165.856 78.424 170.193C78.4965 173.918 78.8702 177.566 79.5142 181.117C80.7897 175.986 84.1371 171.54 88.9145 168.911L108.738 158.004C117.17 153.364 126.226 149.896 135.58 147.684C135.142 147.195 134.887 146.936 134.887 146.936Z" fill="#FFB332"/>
<path d="M214.216 142.87L157.953 143.963C140.576 144.301 123.542 148.856 108.315 157.234L88.4914 168.142C81.9351 171.75 77.9195 178.695 78.0652 186.177L78.8852 228.352C79.0206 235.314 77.7146 242.177 75.1074 248.506C82.4318 252.456 90.1921 255.699 98.2963 258.152C102.493 252.586 105.29 245.901 106.108 238.555C106.269 237.111 106.344 235.697 106.318 234.332L105.508 192.69C105.343 184.234 112.065 177.245 120.521 177.081C128.977 176.917 135.966 183.639 136.13 192.094L136.152 193.243C136.351 203.455 134.169 213.572 129.78 222.794C125.281 232.246 124.615 243.071 127.92 253.003C129.151 256.704 130.752 260.221 132.668 263.522C133.407 263.535 134.144 263.551 134.886 263.551C155.513 263.551 174.982 258.597 192.171 249.817C192.002 244.669 189.28 239.938 184.898 237.213L175.101 231.122C169.331 227.535 165.77 221.27 165.637 214.477L165.347 199.561C165.327 198.518 166.156 197.657 167.199 197.636L189.734 197.198C193.828 197.118 197.786 198.669 200.737 201.507L206.597 207.144C209.023 209.477 213.072 208.07 213.528 204.734L220.944 150.43C221.498 146.379 218.304 142.79 214.216 142.87V142.87Z" fill="#FFDD40"/>
<path d="M152.671 193.448C152.671 164.953 134.981 147.031 134.891 146.94C125.647 149.169 116.706 152.617 108.315 157.234L88.4914 168.142C81.9351 171.75 77.9195 178.695 78.0652 186.177L78.8857 228.351C79.0211 235.314 77.7151 242.176 75.1079 248.505C82.4323 252.455 90.1926 255.698 98.2968 258.152C102.493 252.586 105.291 245.901 106.109 238.554C106.27 237.11 106.345 235.697 106.318 234.332L105.508 192.69C105.344 184.234 112.066 177.245 120.522 177.081C128.977 176.917 135.966 183.638 136.13 192.094L136.152 193.243C136.351 203.455 134.17 213.572 129.78 222.794C125.282 232.246 124.615 243.071 127.92 253.003C129.151 256.704 130.752 260.221 132.669 263.522C133.407 263.535 134.145 263.55 134.886 263.55C145.464 263.55 155.734 262.239 165.552 259.786C140.117 249.942 152.671 222.012 152.671 193.448V193.448Z" fill="#FFC839"/>
<path d="M126.99 182.796C126.005 180.581 127.002 177.987 129.216 177.002C131.631 176.159 143.557 169.121 162.614 168.75L219.556 167.643C221.993 167.582 223.983 169.523 224.03 171.947C224.077 174.37 222.15 176.373 219.727 176.42L162.785 177.528C145.897 177.855 135.061 184.224 132.784 185.022C130.574 186.005 127.978 185.017 126.99 182.796V182.796Z" fill="#FFC839"/>
<path d="M151.078 178.767C144.844 175.385 148.604 170.342 148.646 170.286C137.756 172.506 130.972 176.389 129.217 177.001C127.002 177.986 126.005 180.581 126.99 182.795C127.978 185.016 130.575 186.004 132.785 185.022C134.48 184.427 140.926 180.745 151.08 178.768C151.079 178.768 151.079 178.767 151.078 178.767Z" fill="#FFB332"/>
<defs>
<filter id="filter0_d" x="35" y="43" width="217" height="215" filterUnits="userSpaceOnUse" color-interpolation-filters="sRGB">
<feFlood flood-opacity="0" result="BackgroundImageFix"/>
<feColorMatrix in="SourceAlpha" type="matrix" values="0 0 0 0 0 0 0 0 0 0 0 0 0 0 0 0 0 0 127 0" result="hardAlpha"/>
<feOffset dy="4"/>
<feGaussianBlur stdDeviation="2"/>
<feComposite in2="hardAlpha" operator="out"/>
<feColorMatrix type="matrix" values="0 0 0 0 0 0 0 0 0 0 0 0 0 0 0 0 0 0 0.25 0"/>
<feBlend mode="normal" in2="BackgroundImageFix" result="effect1_dropShadow"/>
<feBlend mode="normal" in="SourceGraphic" in2="effect1_dropShadow" result="shape"/>
</filter>
<linearGradient id="paint0_linear" x1="12.875" y1="-230.535" x2="318.642" y2="-210.906" gradientUnits="userSpaceOnUse">
<stop stop-color="#00A3FF"/>
<stop offset="1" stop-color="#00D1C5"/>
</linearGradient>
</defs>
</svg>
