<svg width="43" height="43" viewBox="0 0 43 43" fill="none" xmlns="http://www.w3.org/2000/svg">
<path d="M41.3203 0H1.67969C0.751923 0 0 0.751923 0 1.67969V41.3203C0 42.2481 0.751923 43 1.67969 43H41.3203C42.2481 43 43 42.2481 43 41.3203V1.67969C43 0.751923 42.2481 0 41.3203 0ZM39.6406 39.6406H3.35938V3.35938H39.6406V39.6406ZM6.87491 11.5216C6.21878 10.8658 6.21878 9.80222 6.87491 9.1461C7.53071 8.4903 8.59429 8.4903 9.25009 9.1461L10.3376 10.2336L13.9296 6.64198C14.5854 5.98586 15.649 5.98586 16.3048 6.64198C16.9609 7.29811 16.9609 8.36137 16.3048 9.01749L11.5255 13.7967C10.8694 14.4529 9.80583 14.4525 9.15003 13.7967L6.87491 11.5216ZM19.8203 10.2195C19.8203 9.29176 20.5722 8.53983 21.5 8.53983H34.9375C35.8653 8.53983 36.6172 9.29176 36.6172 10.2195C36.6172 11.147 35.8653 11.8992 34.9375 11.8992H21.5C20.5722 11.8992 19.8203 11.147 19.8203 10.2195ZM6.87491 34.0829C6.21878 33.4268 6.21878 32.3632 6.87491 31.7074C7.53071 31.0516 8.59429 31.0513 9.25009 31.7074L10.3376 32.7949L13.9296 29.2033C14.5854 28.5471 15.649 28.5471 16.3048 29.2033C16.9609 29.8591 16.9609 30.9227 16.3048 31.5788L11.5255 36.358C10.8694 37.0141 9.80583 37.0138 9.15003 36.358L6.87491 34.0829ZM19.8203 32.7805C19.8203 31.853 20.5722 31.1008 21.5 31.1008H34.9375C35.8653 31.1008 36.6172 31.853 36.6172 32.7805C36.6172 33.7082 35.8653 34.4602 34.9375 34.4602H21.5C20.5722 34.4602 19.8203 33.7082 19.8203 32.7805ZM6.87491 22.8024C6.21878 22.1463 6.21878 21.0827 6.87491 20.4269C7.53071 19.7708 8.59429 19.7708 9.25009 20.4269L10.3376 21.5144L13.9296 17.9225C14.5854 17.2667 15.649 17.2667 16.3048 17.9225C16.9609 18.5786 16.9609 19.6422 16.3048 20.298L11.5255 25.0775C10.8694 25.7333 9.80583 25.7333 9.15003 25.0775L6.87491 22.8024ZM19.8203 21.5C19.8203 20.5722 20.5722 19.8203 21.5 19.8203H34.9375C35.8653 19.8203 36.6172 20.5722 36.6172 21.5C36.6172 22.4278 35.8653 23.1797 34.9375 23.1797H21.5C20.5722 23.1797 19.8203 22.4278 19.8203 21.5Z" fill="url(#paint0_linear)"/>
<defs>
<linearGradient id="paint0_linear" x1="0" y1="21.5" x2="43" y2="21.5" gradientUnits="userSpaceOnUse">
<stop stop-color="#80D8FF"/>
<stop offset="1" stop-color="#EA80FC"/>
</linearGradient>
</defs>
</svg>
