<svg width="41" height="41" viewBox="0 0 41 41" fill="none" xmlns="http://www.w3.org/2000/svg">
<g clip-path="url(#clip0)">
<path d="M32.1761 2.30749C32.2467 -0.78856 36.351 -0.61939 36.5795 1.92256C36.8071 -0.617789 40.9115 -0.790081 40.9829 2.30749C40.9828 4.54177 37.811 5.70938 36.5795 7.21414C35.348 5.70938 32.1761 4.54185 32.1761 2.30749ZM39.4035 21.4111C40.4219 22.436 40.9828 23.8799 40.9828 25.477C40.9828 28.8506 38.0704 31.0093 35.7303 32.7437C34.6445 33.5485 33.6189 34.3086 33.0201 35.0479C32.4005 35.8342 31.1509 35.8341 30.5315 35.0479C29.9327 34.3086 28.9071 33.5484 27.8212 32.7437C25.4811 31.0093 22.5687 28.8506 22.5687 25.477C22.5687 23.8799 23.1296 22.436 24.148 21.4111C26.0286 19.3856 29.8893 19.376 31.7758 21.2852C33.6626 19.3759 37.5227 19.3857 39.4035 21.4111ZM37.7804 25.477C37.7804 24.0126 36.9162 23.0664 35.5787 23.0664C34.438 23.0664 33.9921 23.5306 33.7558 23.8797C33.456 24.3231 33.3813 24.8104 33.3712 24.8861C33.1937 26.8842 30.3571 26.8827 30.1802 24.8861C30.1701 24.8104 30.0954 24.3231 29.7956 23.8797C29.5594 23.5306 29.1135 23.0664 27.9728 23.0664C26.6353 23.0664 25.7711 24.0126 25.7711 25.477C25.7711 27.238 27.7827 28.729 29.728 30.1709C30.4247 30.6871 31.1351 31.2137 31.7757 31.7713C32.4163 31.2137 33.1267 30.6871 33.8233 30.1709C35.7687 28.729 37.7804 27.238 37.7804 25.477ZM25.7874 35.8579C10.4696 44.1948 -4.86665 24.2893 7.91251 12.8309C8.01211 12.7418 8.1266 12.7168 8.25293 12.7559C8.33051 12.7801 8.46758 12.8489 8.51345 13.0384C8.80199 14.2298 9.34129 15.9191 10.2719 17.2016C10.6697 17.7496 11.3692 17.9884 12.019 17.7974C18.732 15.7934 21.3189 10.4103 21.3047 3.3591C21.3047 3.3334 21.3045 3.27327 21.3789 3.23084C21.4427 3.19449 21.4794 3.21635 21.5037 3.23076C28.1862 7.20781 31.1309 12.4922 32.4243 16.2249C32.7138 17.0604 33.626 17.5031 34.4616 17.2136C35.2972 16.9241 35.7398 16.0119 35.4503 15.1763C34.4818 12.3817 33.0311 9.76025 31.1385 7.38491C28.9801 4.67587 26.2896 2.35241 23.1415 0.478892C22.0994 -0.141424 20.8475 -0.152553 19.7924 0.449029C18.7467 1.04533 18.0992 2.1637 18.1023 3.36759C18.1175 9.16387 16.2657 12.6769 12.2979 14.3114C12.0402 13.7368 11.8106 13.0475 11.6258 12.2847C11.3253 11.0434 10.4201 10.0765 9.20454 9.69812C7.99986 9.32327 6.71872 9.60197 5.77735 10.4438C-6.25267 20.5809 1.8212 40.9702 18.3577 41C21.5077 41 24.6192 40.1873 27.3559 38.6498C28.1269 38.2167 28.4007 37.2404 27.9676 36.4695C27.5346 35.6987 26.5585 35.4248 25.7874 35.8579Z" fill="url(#paint0_linear)"/>
</g>
<defs>
<linearGradient id="paint0_linear" x1="0.0174171" y1="20.5001" x2="40.9829" y2="20.5001" gradientUnits="userSpaceOnUse">
<stop stop-color="#87F1FC"/>
<stop offset="0.2557" stop-color="#7FD4FB"/>
<stop offset="0.5295" stop-color="#78BCFB"/>
<stop offset="0.7844" stop-color="#74AEFA"/>
<stop offset="1" stop-color="#73A9FA"/>
</linearGradient>
<clipPath id="clip0">
<rect width="41" height="41" fill="white"/>
</clipPath>
</defs>
</svg>
