<svg width="44" height="44" viewBox="0 0 44 44" fill="none" xmlns="http://www.w3.org/2000/svg">
<g clip-path="url(#clip0)">
<path d="M43.4926 22.7474C43.1574 23.0804 42.7193 23.2469 42.2812 23.2469C41.8394 23.2469 41.3979 23.0777 41.062 22.7395L39.7031 21.3716V27.6296C39.7031 28.5789 38.9336 29.3483 37.9844 29.3483C37.0351 29.3483 36.2656 28.5789 36.2656 27.6296V17.9115L23.1939 4.75364C22.5525 4.20415 21.608 4.20209 20.9641 4.74891L7.73359 17.9533C7.73411 17.9703 7.73437 17.9874 7.73437 18.0046V36.2233C7.73437 38.1188 9.27643 39.6608 11.1719 39.6608H15.6406V25.653C15.6406 24.7038 16.4101 23.9343 17.3594 23.9343H26.8125C27.7618 23.9343 28.5312 24.7038 28.5312 25.653V39.6608H32.8281C34.7236 39.6608 36.2656 38.1188 36.2656 36.2233C36.2656 35.2741 37.0351 34.5046 37.9844 34.5046C38.9336 34.5046 39.7031 35.2741 39.7031 36.2233C39.7031 40.0142 36.619 43.0983 32.8281 43.0983H26.8125C25.8632 43.0983 25.0937 42.3289 25.0937 41.3796V27.3718H19.0781V41.3796C19.0781 42.3289 18.3086 43.0983 17.3594 43.0983H11.1719C7.38099 43.0983 4.29687 40.0142 4.29687 36.2233V21.3833L2.93287 22.7447C2.26109 23.4151 1.17287 23.4141 0.502209 22.7422C-0.168361 22.0704 -0.167244 20.9822 0.504615 20.3115L18.5763 2.27537C18.5994 2.25234 18.6232 2.22991 18.6476 2.20817C20.6106 0.460631 23.5655 0.466905 25.521 2.22269C25.5453 2.24452 25.5691 2.26704 25.592 2.29024L43.5005 20.3167C44.1696 20.9902 44.166 22.0784 43.4926 22.7474Z" fill="url(#paint0_linear)"/>
</g>
<defs>
<linearGradient id="paint0_linear" x1="-9.8752e-06" y1="22" x2="44" y2="22" gradientUnits="userSpaceOnUse">
<stop stop-color="#00F2FE"/>
<stop offset="0.021" stop-color="#03EFFE"/>
<stop offset="0.293" stop-color="#24D2FE"/>
<stop offset="0.554" stop-color="#3CBDFE"/>
<stop offset="0.796" stop-color="#4AB0FE"/>
<stop offset="1" stop-color="#4FACFE"/>
</linearGradient>
<clipPath id="clip0">
<rect width="44" height="44" fill="white"/>
</clipPath>
</defs>
</svg>
